<svg width="16" height="11" viewBox="0 0 16 11" fill="none" xmlns="http://www.w3.org/2000/svg">
<path d="M5.44827 8.42674C6.72894 7.34447 8.60513 7.34447 9.8858 8.42674C9.95015 8.48495 9.98754 8.56756 9.98931 8.65428C9.99097 8.74092 9.95649 8.82405 9.89459 8.88475L7.88969 10.9072C7.83091 10.9666 7.75064 11 7.66703 11C7.58344 11 7.50314 10.9666 7.44438 10.9072L5.43851 8.88475C5.37691 8.82405 5.34306 8.74071 5.34476 8.65428C5.34659 8.5676 5.38393 8.4849 5.44827 8.42674ZM2.77248 5.72946C5.53162 3.16507 9.80437 3.16512 12.5635 5.72946C12.6258 5.7896 12.6613 5.87242 12.6622 5.95896C12.6629 6.04531 12.6293 6.12816 12.5684 6.18943L11.4092 7.36033C11.2898 7.47963 11.0972 7.48149 10.9747 7.36521C10.0686 6.54545 8.88938 6.09169 7.66703 6.09177C6.44563 6.09229 5.26775 6.54614 4.36233 7.36521C4.23978 7.48156 4.04624 7.47984 3.92678 7.36033L2.76857 6.18943C2.70749 6.12823 2.67314 6.04537 2.67384 5.95896C2.67466 5.87248 2.71027 5.78958 2.77248 5.72946ZM0.0966802 3.03902C4.32852 -1.01307 11.0045 -1.01292 15.2364 3.03902C15.2977 3.09922 15.3326 3.18169 15.3331 3.26754C15.3335 3.3533 15.2998 3.43617 15.2393 3.49703L14.0792 4.66696C13.9596 4.78705 13.765 4.78813 13.6436 4.66989C12.0313 3.13847 9.89163 2.28423 7.66703 2.28413C5.44213 2.28415 3.302 3.13825 1.68946 4.66989C1.56818 4.78826 1.37441 4.78706 1.25489 4.66696L0.0937505 3.49703C0.0333195 3.43615 -0.000480888 3.35327 0 3.26754C0.000565278 3.18169 0.0353777 3.09918 0.0966802 3.03902Z" fill="black"/>
</svg>
